<mxfile host="app.diagrams.net" modified="2021-08-19T15:13:42.213Z" agent="5.0 (Macintosh; Intel Mac OS X 10_15_7) AppleWebKit/605.1.15 (KHTML, like Gecko) Version/14.1.2 Safari/605.1.15" etag="SjOdLb-QSoOtNcZIfjri" version="14.9.8" type="gitlab">
  <diagram id="VGXvJIXOLv8DUKHeHt5N" name="Page-1">
    <mxGraphModel dx="946" dy="589" grid="1" gridSize="10" guides="1" tooltips="1" connect="1" arrows="1" fold="1" page="1" pageScale="1" pageWidth="827" pageHeight="1169" math="0" shadow="0">
      <root>
        <mxCell id="0" />
        <mxCell id="1" parent="0" />
        <mxCell id="-XDd9_b0Rb5PniTTwB9Y-48" value="portal application" style="shape=umlLifeline;perimeter=lifelinePerimeter;whiteSpace=wrap;html=1;container=1;collapsible=0;recursiveResize=0;outlineConnect=0;" vertex="1" parent="1">
          <mxGeometry x="50" y="50" width="100" height="300" as="geometry" />
        </mxCell>
        <mxCell id="-XDd9_b0Rb5PniTTwB9Y-49" value="authorization service" style="shape=umlLifeline;perimeter=lifelinePerimeter;whiteSpace=wrap;html=1;container=1;collapsible=0;recursiveResize=0;outlineConnect=0;" vertex="1" parent="1">
          <mxGeometry x="330" y="50" width="100" height="480" as="geometry" />
        </mxCell>
        <mxCell id="-XDd9_b0Rb5PniTTwB9Y-50" value="FHIR resource service" style="shape=umlLifeline;perimeter=lifelinePerimeter;whiteSpace=wrap;html=1;container=1;collapsible=0;recursiveResize=0;outlineConnect=0;" vertex="1" parent="1">
          <mxGeometry x="470" y="50" width="100" height="480" as="geometry" />
        </mxCell>
        <mxCell id="-XDd9_b0Rb5PniTTwB9Y-51" value="start (launch, iss)" style="html=1;verticalAlign=bottom;startArrow=oval;endArrow=block;startSize=8;" edge="1" parent="1">
          <mxGeometry relative="1" as="geometry">
            <mxPoint x="99.5" y="190" as="sourcePoint" />
            <Array as="points">
              <mxPoint x="190" y="190" />
            </Array>
            <mxPoint x="235" y="190" as="targetPoint" />
          </mxGeometry>
        </mxCell>
        <mxCell id="-XDd9_b0Rb5PniTTwB9Y-52" value="" style="html=1;points=[];perimeter=orthogonalPerimeter;" vertex="1" parent="1">
          <mxGeometry x="520" y="230" width="10" height="40" as="geometry" />
        </mxCell>
        <mxCell id="-XDd9_b0Rb5PniTTwB9Y-53" value="/metadata" style="html=1;verticalAlign=bottom;endArrow=block;entryX=0;entryY=0;" edge="1" parent="1" target="-XDd9_b0Rb5PniTTwB9Y-52">
          <mxGeometry relative="1" as="geometry">
            <mxPoint x="245" y="230" as="sourcePoint" />
          </mxGeometry>
        </mxCell>
        <mxCell id="-XDd9_b0Rb5PniTTwB9Y-54" value="conformance" style="html=1;verticalAlign=bottom;endArrow=open;dashed=1;endSize=8;" edge="1" parent="1">
          <mxGeometry relative="1" as="geometry">
            <mxPoint x="246" y="270" as="targetPoint" />
            <Array as="points">
              <mxPoint x="460" y="270" />
            </Array>
            <mxPoint x="519.5" y="270" as="sourcePoint" />
          </mxGeometry>
        </mxCell>
        <mxCell id="-XDd9_b0Rb5PniTTwB9Y-55" value="" style="html=1;points=[];perimeter=orthogonalPerimeter;" vertex="1" parent="1">
          <mxGeometry x="380" y="310" width="10" height="80" as="geometry" />
        </mxCell>
        <mxCell id="-XDd9_b0Rb5PniTTwB9Y-56" value="/authorize" style="html=1;verticalAlign=bottom;endArrow=block;entryX=0;entryY=0;" edge="1" parent="1" target="-XDd9_b0Rb5PniTTwB9Y-55">
          <mxGeometry relative="1" as="geometry">
            <mxPoint x="245" y="310" as="sourcePoint" />
          </mxGeometry>
        </mxCell>
        <mxCell id="-XDd9_b0Rb5PniTTwB9Y-57" value="code response" style="html=1;verticalAlign=bottom;endArrow=open;dashed=1;endSize=8;exitX=0;exitY=0.95;" edge="1" parent="1" source="-XDd9_b0Rb5PniTTwB9Y-55">
          <mxGeometry relative="1" as="geometry">
            <mxPoint x="245" y="386" as="targetPoint" />
          </mxGeometry>
        </mxCell>
        <mxCell id="-XDd9_b0Rb5PniTTwB9Y-58" value="" style="html=1;points=[];perimeter=orthogonalPerimeter;" vertex="1" parent="1">
          <mxGeometry x="388" y="340" width="10" height="40" as="geometry" />
        </mxCell>
        <mxCell id="-XDd9_b0Rb5PniTTwB9Y-59" value="authenticate &amp;amp; &lt;br&gt;authorize" style="edgeStyle=orthogonalEdgeStyle;html=1;align=left;spacingLeft=2;endArrow=block;rounded=0;entryX=1;entryY=0;" edge="1" parent="1" target="-XDd9_b0Rb5PniTTwB9Y-58">
          <mxGeometry relative="1" as="geometry">
            <mxPoint x="390" y="320" as="sourcePoint" />
            <Array as="points">
              <mxPoint x="423" y="320" />
            </Array>
          </mxGeometry>
        </mxCell>
        <mxCell id="-XDd9_b0Rb5PniTTwB9Y-60" value="" style="html=1;points=[];perimeter=orthogonalPerimeter;" vertex="1" parent="1">
          <mxGeometry x="380" y="430" width="10" height="80" as="geometry" />
        </mxCell>
        <mxCell id="-XDd9_b0Rb5PniTTwB9Y-61" value="/token" style="html=1;verticalAlign=bottom;endArrow=block;entryX=0;entryY=0;" edge="1" parent="1" target="-XDd9_b0Rb5PniTTwB9Y-60">
          <mxGeometry relative="1" as="geometry">
            <mxPoint x="245" y="430" as="sourcePoint" />
          </mxGeometry>
        </mxCell>
        <mxCell id="-XDd9_b0Rb5PniTTwB9Y-62" value="token response" style="html=1;verticalAlign=bottom;endArrow=open;dashed=1;endSize=8;exitX=0;exitY=0.95;entryX=1.1;entryY=0.764;entryDx=0;entryDy=0;entryPerimeter=0;" edge="1" parent="1" source="-XDd9_b0Rb5PniTTwB9Y-60">
          <mxGeometry relative="1" as="geometry">
            <mxPoint x="246" y="506.1600000000001" as="targetPoint" />
          </mxGeometry>
        </mxCell>
        <mxCell id="-XDd9_b0Rb5PniTTwB9Y-63" value="" style="html=1;points=[];perimeter=orthogonalPerimeter;" vertex="1" parent="1">
          <mxGeometry x="520" y="550" width="10" height="40" as="geometry" />
        </mxCell>
        <mxCell id="-XDd9_b0Rb5PniTTwB9Y-64" value="/fhir/Person" style="html=1;verticalAlign=bottom;endArrow=block;entryX=0;entryY=0;exitX=1.5;exitY=0.805;exitDx=0;exitDy=0;exitPerimeter=0;" edge="1" parent="1" target="-XDd9_b0Rb5PniTTwB9Y-63">
          <mxGeometry relative="1" as="geometry">
            <mxPoint x="250" y="550.05" as="sourcePoint" />
          </mxGeometry>
        </mxCell>
        <mxCell id="-XDd9_b0Rb5PniTTwB9Y-65" value="FHIR object" style="html=1;verticalAlign=bottom;endArrow=open;dashed=1;endSize=8;exitX=0;exitY=0.95;" edge="1" parent="1" source="-XDd9_b0Rb5PniTTwB9Y-63">
          <mxGeometry relative="1" as="geometry">
            <mxPoint x="250" y="588" as="targetPoint" />
          </mxGeometry>
        </mxCell>
        <mxCell id="-XDd9_b0Rb5PniTTwB9Y-66" value="" style="html=1;points=[];perimeter=orthogonalPerimeter;" vertex="1" parent="1">
          <mxGeometry x="95" y="150" width="10" height="80" as="geometry" />
        </mxCell>
        <mxCell id="-XDd9_b0Rb5PniTTwB9Y-67" value="create JWT" style="edgeStyle=orthogonalEdgeStyle;html=1;align=left;spacingLeft=2;endArrow=block;rounded=0;entryX=1;entryY=0;" edge="1" parent="1" target="-XDd9_b0Rb5PniTTwB9Y-66">
          <mxGeometry relative="1" as="geometry">
            <mxPoint x="100" y="130" as="sourcePoint" />
            <Array as="points">
              <mxPoint x="130" y="130" />
            </Array>
          </mxGeometry>
        </mxCell>
        <mxCell id="-XDd9_b0Rb5PniTTwB9Y-68" value="" style="html=1;points=[];perimeter=orthogonalPerimeter;" vertex="1" parent="1">
          <mxGeometry x="385" y="460" width="10" height="40" as="geometry" />
        </mxCell>
        <mxCell id="-XDd9_b0Rb5PniTTwB9Y-69" value="validate JWT" style="edgeStyle=orthogonalEdgeStyle;html=1;align=left;spacingLeft=2;endArrow=block;rounded=0;entryX=1;entryY=0;" edge="1" parent="1" target="-XDd9_b0Rb5PniTTwB9Y-68">
          <mxGeometry relative="1" as="geometry">
            <mxPoint x="390" y="440" as="sourcePoint" />
            <Array as="points">
              <mxPoint x="420" y="440" />
            </Array>
          </mxGeometry>
        </mxCell>
      </root>
    </mxGraphModel>
  </diagram>
</mxfile>
